<?xml version="1.0" encoding="utf-8"?>
<svg xmlns="http://www.w3.org/2000/svg" width="16" height="16" fill="currentColor" class="bi bi-window" viewBox="-0.459 0.061 16 16" xmlns:bx="https://boxy-svg.com">
  <defs>
    <linearGradient id="color-0" bx:pinned="true" gradientUnits="userSpaceOnUse">
      <stop style="stop-color: rgb(255, 96, 92);"/>
    </linearGradient>
  </defs>
  <path d="M 1.847 1 C 0.807 1 -0.035 1.869 -0.035 2.94 L -0.035 12.642 C -0.035 13.713 0.807 14.582 1.847 14.582 L 13.135 14.582 C 14.174 14.582 15.017 13.713 15.017 12.642 L 15.017 2.94 C 15.017 1.869 14.174 1 13.135 1 L 1.847 1 Z M 1.847 13.612 C 1.327 13.612 0.905 13.178 0.905 12.642 L 0.905 5.851 L 14.076 5.851 L 14.076 12.642 C 14.076 13.178 13.655 13.612 13.135 13.612 L 1.847 13.612 Z" style=""/>
  <g>
    <path d="M 2.31 4 C 2.78 4 3.074 3.491 2.839 3.084 C 2.73 2.896 2.529 2.779 2.31 2.779 C 1.841 2.779 1.547 3.288 1.782 3.695 C 1.891 3.884 2.092 4 2.31 4" style="fill: rgb(255, 96, 108);"/>
    <path d="M 5.972 4 C 6.442 4 6.736 3.491 6.501 3.084 C 6.392 2.896 6.19 2.779 5.972 2.779 C 5.503 2.779 5.209 3.288 5.444 3.695 C 5.553 3.884 5.754 4 5.972 4" style="fill: rgb(0, 202, 78);"/>
    <path d="M 4.752 3.39 C 4.752 3.859 4.243 4.153 3.836 3.918 C 3.647 3.809 3.531 3.608 3.531 3.39 C 3.531 2.92 4.04 2.626 4.447 2.861 C 4.635 2.97 4.752 3.171 4.752 3.39" style="fill: rgb(255, 189, 68);"/>
  </g>
</svg>